HIERARCHY
ROOT root
{
	OFFSET	0	13.1	24.9
	CHANNELS 6  Xposition Yposition Zposition Xrotation Yrotation Zrotation
	JOINT spine_1
	{
		OFFSET	0	9.99999	0
		CHANNELS 3  Xrotation Yrotation Zrotation
		JOINT spine_2
		{
			OFFSET	0	112	-10
			CHANNELS 3  Xrotation Yrotation Zrotation
			JOINT spine_3
			{
				OFFSET	0	206.5	19.3
				CHANNELS 3  Xrotation Yrotation Zrotation
				JOINT spine_4
				{
					OFFSET	0	110.4	14.6
					CHANNELS 3  Xrotation Yrotation Zrotation
					JOINT neck_1
					{
						OFFSET	0	71.8	-50.3
						CHANNELS 3  Xrotation Yrotation Zrotation
						JOINT neck_2
						{
							OFFSET	0	86.2	-25.8
							CHANNELS 3  Xrotation Yrotation Zrotation
							JOINT head_ee
							{
								OFFSET	0	179.8	-8.7
								CHANNELS 3  Xrotation Yrotation Zrotation
								End Site
								{
									OFFSET	1	0	0
								}
							}
						}
					}
					JOINT left_clavicle
					{
						OFFSET	-43.2	22.4	-70.8
						CHANNELS 3  Xrotation Yrotation Zrotation
						JOINT left_shoulder
						{
							OFFSET	-93.9	-5.79999	48.7
							CHANNELS 3  Xrotation Yrotation Zrotation
							JOINT left_elbow
							{
								OFFSET	-291.4	-30.8	15.2
								CHANNELS 3  Xrotation Yrotation Zrotation
								JOINT left_lowarm_twist
								{
									OFFSET	-110.7	-3.89999	13.6
									CHANNELS 3  Xrotation Yrotation Zrotation
									JOINT left_hand
									{
										OFFSET	-110.7	-3.89999	13.6
										CHANNELS 3  Xrotation Yrotation Zrotation
										JOINT left_ee
										{
											OFFSET	-80.8	-5.10001	12.1
											CHANNELS 3  Xrotation Yrotation Zrotation
											End Site
											{
												OFFSET	1	0	0
											}
										}
									}
								}
							}
						}
					}
					JOINT right_clavicle
					{
						OFFSET	43.2	22.4	-70.8
						CHANNELS 3  Xrotation Yrotation Zrotation
						JOINT right_shoulder
						{
							OFFSET	93.9	-5.79999	48.7
							CHANNELS 3  Xrotation Yrotation Zrotation
							JOINT right_elbow
							{
								OFFSET	291.4	-30.8	15.2
								CHANNELS 3  Xrotation Yrotation Zrotation
								JOINT right_lowarm_twist
								{
									OFFSET	110.7	-3.89999	13.6
									CHANNELS 3  Xrotation Yrotation Zrotation
									JOINT right_hand
									{
										OFFSET	110.7	-3.89999	13.6
										CHANNELS 3  Xrotation Yrotation Zrotation
										JOINT right_ee
										{
											OFFSET	80.8	-5.10001	12.1
											CHANNELS 3  Xrotation Yrotation Zrotation
											End Site
											{
												OFFSET	1	0	0
											}
										}
									}
								}
							}
						}
					}
				}
			}
		}
	}
	JOINT left_hip
	{
		OFFSET	-82.8	-127.5	0.300001
		CHANNELS 3  Xrotation Yrotation Zrotation
		JOINT left_knee
		{
			OFFSET	-28.2	-396.7	2.2
			CHANNELS 3  Xrotation Yrotation Zrotation
			JOINT left_ankle
			{
				OFFSET	-11.7	-411.3	35.4
				CHANNELS 3  Xrotation Yrotation Zrotation
				JOINT left_toes
				{
					OFFSET	0	-60	-88.6
					CHANNELS 3  Xrotation Yrotation Zrotation
					JOINT left_foot_ee
					{
						OFFSET	-22.5	-16.5	-42.2
						CHANNELS 3  Xrotation Yrotation Zrotation
						End Site
						{
							OFFSET	1	0	0
						}
					}
				}
			}
		}
	}
	JOINT right_hip
	{
		OFFSET	82.8	-127.5	0.300001
		CHANNELS 3  Xrotation Yrotation Zrotation
		JOINT right_knee
		{
			OFFSET	28.2	-396.7	2.2
			CHANNELS 3  Xrotation Yrotation Zrotation
			JOINT right_ankle
			{
				OFFSET	11.7	-411.3	35.4
				CHANNELS 3  Xrotation Yrotation Zrotation
				JOINT right_toes
				{
					OFFSET	0	-60	-88.6
					CHANNELS 3  Xrotation Yrotation Zrotation
					JOINT right_foot_ee
					{
						OFFSET	22.5	-16.5	-42.2
						CHANNELS 3  Xrotation Yrotation Zrotation
						End Site
						{
							OFFSET	1	0	0
						}
					}
				}
			}
		}
	}
}
MOTION
Frames: 7
Frame Time: 0.02
3542.98995827 732.973 -1476.50101302 129.833740493 74.4001100876 -131.188116414 -7.57347 0.294683 0.358469 -7.57344 0.271276 0.376493 -7.5714 0.128458 0.44591 -7.57162 0.197268 0.420027 -0.163322 -0.768929 3.29209 -0.11308 -4.05925 3.45345 -0.0 0.0 -0.0 5.89841 2.03183 11.4477 4.73565 0.459398 65.6118 1.00825 -26.5397 0.237787 21.7513 0.24689 -2.75092 -2.78904 28.8217 -3.77792 -0.0 0.0 -0.0 12.3561 21.1738 -24.6647 7.42126 11.8465 -51.4543 1.25092 31.7839 -0.356157 -64.3025 5.82216 -5.21485 -2.43267 -28.533 2.01077 0.0 0.0 0.0 13.2112 5.84005 -7.14311 -45.539 -0.856216 6.75562 1.67935 11.2357 -0.245055 24.9176 -0.0 -0.0 -0.0 0.0 -0.0 -14.6587 0.100633 -2.91251 -11.9731 -0.304921 -1.80883 -22.5731 -21.1326 -3.47729 -13.809 0.0 0.0 0.0 0.0 0.0 
3543.08381572 732.973 -1477.73459067 123.034327733 75.7399389859 -124.152211932 -7.57347 0.294683 0.358469 -7.57344 0.271276 0.376493 -7.5714 0.128458 0.44591 -7.57162 0.197268 0.420027 -0.163322 -0.768929 3.29209 -0.11308 -4.05925 3.45345 -0.0 0.0 -0.0 5.89841 2.03183 11.4477 4.73565 0.459398 65.6118 1.00825 -26.5397 0.237787 21.7513 0.24689 -2.75092 -2.78904 28.8217 -3.77792 -0.0 0.0 -0.0 12.3561 21.1738 -24.6647 7.42126 11.8465 -51.4543 1.25092 31.7839 -0.356157 -64.3025 5.82216 -5.21485 -2.43267 -28.533 2.01077 0.0 0.0 0.0 13.2112 5.84005 -7.14311 -45.539 -0.856216 6.75562 1.67935 11.2357 -0.245055 24.9176 -0.0 -0.0 -0.0 0.0 -0.0 -14.6587 0.100633 -2.91251 -11.9731 -0.304921 -1.80883 -22.5731 -21.1326 -3.47729 -13.809 0.0 0.0 0.0 0.0 0.0 
3536.38441106 730.06 -1479.51904497 132.245605234 73.3229582406 -133.812485984 -7.52928 0.297455 0.400381 -7.52924 0.271376 0.418497 -7.52694 0.114767 0.485399 -7.52722 0.189985 0.461183 -0.584508 -0.569273 2.5937 -0.55443 -3.12228 2.70746 -0.0 0.0 -0.0 5.79887 1.73715 11.252 4.22947 0.788354 65.3877 0.870876 -23.3354 0.179842 20.9291 0.256658 -2.64636 -2.80815 27.4565 -4.62013 -0.0 0.0 -0.0 12.348 20.4509 -24.7019 9.141 13.114 -50.9858 1.35322 33.8339 -0.411593 -64.2741 5.81858 -5.21423 -2.86702 -27.2054 5.08023 0.0 0.0 0.0 13.9641 6.0545 -6.95355 -45.0269 -0.817142 6.68719 2.1808 5.78583 -0.317723 25.1645 -0.0 -0.0 -0.0 0.0 -0.0 -15.6608 -0.0249599 -3.54033 -11.0466 -0.294895 -1.66702 -23.2557 -22.6721 -3.60544 -14.4447 0.0 0.0 0.0 0.0 0.0 
3536.38761514 730.06 -1479.54442412 132.150984126 73.348638678 -133.713716755 -7.52928 0.297455 0.400381 -7.52924 0.271376 0.418497 -7.52694 0.114767 0.485399 -7.52722 0.189985 0.461183 -0.584508 -0.569273 2.5937 -0.55443 -3.12228 2.70746 -0.0 0.0 -0.0 5.79887 1.73715 11.252 4.22947 0.788354 65.3877 0.870876 -23.3354 0.179842 20.9291 0.256658 -2.64636 -2.80815 27.4565 -4.62013 -0.0 0.0 -0.0 12.348 20.4509 -24.7019 9.141 13.114 -50.9858 1.35322 33.8339 -0.411593 -64.2741 5.81858 -5.21423 -2.86702 -27.2054 5.08023 0.0 0.0 0.0 13.9641 6.0545 -6.95355 -45.0269 -0.817142 6.68719 2.1808 5.78583 -0.317723 25.1645 -0.0 -0.0 -0.0 0.0 -0.0 -15.6608 -0.0249599 -3.54033 -11.0466 -0.294895 -1.66702 -23.2557 -22.6721 -3.60544 -14.4447 0.0 0.0 0.0 0.0 0.0 
3533.15790336 731.76 -1485.8566282 141.457486562 70.3337765094 -143.676603742 -7.52832 0.194958 0.540079 -7.52818 0.160196 0.55139 -7.52614 -0.034637 0.573143 -7.5266 0.0563134 0.571421 -2.67459 0.133463 4.17029 -2.61592 -3.02883 4.37469 -0.0 0.0 -0.0 5.45811 1.04703 10.5802 4.11113 1.06521 64.9289 0.797189 -21.5492 0.151708 19.8007 0.26762 -2.50264 -2.16603 25.3832 -2.13454 -0.0 0.0 -0.0 12.5563 21.0435 -25.1373 11.7747 13.3867 -50.0005 1.48491 36.3352 -0.48731 -62.3809 5.58025 -5.16911 -2.84317 -24.7365 6.293 0.0 0.0 0.0 15.7866 10.9498 -7.9601 -41.8412 -0.588037 6.25408 -0.79911 4.44833 0.117447 23.6438 -0.0 -0.0 -0.0 0.0 -0.0 -15.6644 1.06022 -4.13655 -10.4768 -0.28759 -1.5799 -24.3085 -24.6049 -3.80309 -16.3129 0.0 0.0 0.0 0.0 0.0 
3529.36518476 735.483 -1482.91857998 145.004657194 68.5293845432 -147.608362621 -7.51633 0.0964722 0.631128 -7.51611 0.0561172 0.635988 -7.51494 -0.160996 0.617827 -7.51546 -0.0614034 0.635499 -3.93546 0.196101 3.38794 -3.89869 -2.24017 3.52197 -0.0 0.0 -0.0 5.3166 0.809519 10.3001 3.26822 1.54535 65.1562 0.730101 -19.8836 0.127973 19.3457 0.271238 -2.44464 -2.00045 21.9724 -2.86631 -0.0 0.0 -0.0 12.3494 20.6173 -24.6925 13.7444 15.0155 -50.0175 1.68084 39.7789 -0.608145 -61.2824 5.44265 -5.13931 -3.16023 -21.0942 10.1641 0.0 0.0 0.0 16.8412 11.8998 -7.22771 -37.9949 -0.344159 5.71553 -10.5973 4.63242 1.58512 22.8446 -0.0 -0.0 -0.0 0.0 -0.0 -16.919 2.58609 -4.2847 -7.78993 -0.241484 -1.17021 -24.7051 -26.313 -3.90016 -18.235 0.0 0.0 0.0 0.0 0.0 
3522.66202859 733.587 -1487.11461467 149.062722146 67.3912931921 -152.119891344 -7.50806 0.174171 0.684555 -7.50781 0.130259 0.69425 -7.50552 -0.110643 0.697645 -7.5062 0.000922956 0.706363 -3.73868 1.73057 2.60848 -3.72054 1.15065 2.96049 -0.0 0.0 -0.0 5.37468 0.944682 10.4161 3.16215 1.85683 64.2505 0.615542 -16.9577 0.0917619 18.665 0.275793 -2.35781 -1.79042 20.061 -2.5518 -0.0 0.0 -0.0 12.395 20.1527 -24.8321 15.9448 16.7929 -49.0434 1.80464 41.7916 -0.689021 -59.6813 5.24314 -5.09115 -3.91426 -20.2321 15.2579 0.0 0.0 0.0 18.7564 14.4458 -7.7413 -33.0069 -0.0827999 4.99537 -9.96012 -0.773523 1.50531 19.806 -0.0 -0.0 -0.0 0.0 -0.0 -17.4125 4.17618 -4.64213 -5.16923 -0.178052 -0.773075 -24.9456 -27.9817 -3.97674 -20.5081 0.0 0.0 0.0 0.0 0.0 
